<svg width="36" height="37" viewBox="0 0 36 37" fill="none" xmlns="http://www.w3.org/2000/svg">
<path fill-rule="evenodd" clip-rule="evenodd" d="M18 36.2334C27.9411 36.2334 36 28.1745 36 18.2334C36 8.29227 27.9411 0.233398 18 0.233398C8.05887 0.233398 0 8.29227 0 18.2334C0 28.1745 8.05887 36.2334 18 36.2334Z" fill="#FDF4F4"/>
<rect x="11.4545" y="10.0513" width="14.3182" height="16.3636" rx="3" fill="#E91418" stroke="#E91418"/>
<path d="M16.8463 19.6573C16.3319 20.0019 14.983 20.7056 15.8046 21.5861C16.2059 22.0163 16.6529 22.3239 17.2148 22.3239H20.4215C20.9834 22.3239 21.4304 22.0163 21.8317 21.5861C22.6533 20.7056 21.3044 20.0019 20.7899 19.6573C19.5835 18.8491 18.0528 18.8491 16.8463 19.6573Z" fill="#FDF4F4"/>
<path d="M20.4545 15.7785C20.4545 16.6822 19.7219 17.4148 18.8181 17.4148C17.9144 17.4148 17.1818 16.6822 17.1818 15.7785C17.1818 14.8747 17.9144 14.1421 18.8181 14.1421C19.7219 14.1421 20.4545 14.8747 20.4545 15.7785Z" fill="#FDF4F4"/>
<path d="M16.8463 19.6573C16.3319 20.0019 14.983 20.7056 15.8046 21.5861C16.2059 22.0163 16.6529 22.3239 17.2148 22.3239H20.4215C20.9834 22.3239 21.4304 22.0163 21.8317 21.5861C22.6533 20.7056 21.3044 20.0019 20.7899 19.6573C19.5835 18.8491 18.0528 18.8491 16.8463 19.6573Z" stroke="#FDF4F4" stroke-width="0.5"/>
<path d="M20.4545 15.7785C20.4545 16.6822 19.7219 17.4148 18.8181 17.4148C17.9144 17.4148 17.1818 16.6822 17.1818 15.7785C17.1818 14.8747 17.9144 14.1421 18.8181 14.1421C19.7219 14.1421 20.4545 14.8747 20.4545 15.7785Z" stroke="#FDF4F4" stroke-width="0.5"/>
<path d="M12.2727 13.3242L10.2272 13.3242M12.2727 18.2333L10.2272 18.2333M12.2727 23.1424H10.2272" stroke="#E91418" stroke-linecap="round" stroke-linejoin="round"/>
</svg>
